<svg width="1876" height="1292" viewBox="0 0 1876 1292" fill="none" xmlns="http://www.w3.org/2000/svg">
<path d="M784 505.6L635 617.8L784 730L933 617.8L784 505.6Z" fill="#3D8E46"/>
<path d="M933 1066.6L1082 954.4L933 842.2L784 954.4L635 842.2L486 954.4L635 1066.6L486 1178.8L635 1291L784 1178.8L933 1291L1082 1178.8L933 1066.6Z" fill="#3D8E46"/>
<path d="M1082 954.4L1231 842.2L1082 730V842.2V954.4Z" fill="#3D8E46"/>
<path d="M337 842.2L486 954.4L486 842.2L486 730L337 842.2Z" fill="#3D8E46"/>
<path d="M784 281.2L635 169L635 393.4L784 281.2Z" fill="#3D8E46"/>
<path d="M255.811 910.348C211.589 910.348 172.656 900.615 139.014 881.148C105.583 861.471 79.4515 833.541 60.6201 797.359C42.0003 760.966 32.6904 717.908 32.6904 668.185C32.6904 616.98 42.4235 573.287 61.8896 537.105C81.3558 500.712 107.804 472.888 141.235 453.634C174.666 434.379 212.223 424.752 253.906 424.752C289.665 424.752 321.932 431.523 350.708 445.064C379.696 458.606 403.394 477.332 421.802 501.241C440.422 525.151 451.847 552.763 456.079 584.078H354.834C348.275 561.861 336.532 544.511 319.604 532.027C302.677 519.332 281.307 512.984 255.493 512.984C219.312 512.984 190.007 526.42 167.578 553.292C145.15 579.952 133.936 617.932 133.936 667.232C133.936 716.533 144.938 754.724 166.943 781.808C189.16 808.679 219.1 822.115 256.763 822.115C289.771 822.115 315.69 813.546 334.521 796.407C353.564 779.057 363.403 755.676 364.038 726.266H262.793V651.046H460.84V710.714C460.84 752.185 452.059 787.838 434.497 817.672C416.935 847.506 392.708 870.463 361.816 886.544C330.924 902.413 295.589 910.348 255.811 910.348Z" fill="#8E9893"/>
<path opacity="0.75" d="M558.086 295.477H671.758L791.875 588.738H796.855L917.266 295.477H1031.82V732H941.289V447.82H938.066L824.688 729.949H763.457L651.25 447.234H647.441V732H558.086V295.477Z" fill="#8E9893"/>
<path d="M635 1066.6L486 954.4V1178.8L635 1066.6Z" fill="#D9D9D9"/>
<path d="M933 842.2V617.8L784 730L784 954.4L933 842.2Z" fill="#D9D9D9"/>
<path d="M1082 954.4L933 1066.6L1082 1178.8V954.4Z" fill="#D9D9D9"/>
<path d="M933 169L784 281.2L933 393.4V169Z" fill="#D9D9D9"/>
<path d="M1231 842.2V617.8L1082 505.6V281.2L933 169M1231 842.2L1082 954.4M1231 842.2L1082 730V954.4M337 842.2V617.8L486 505.6V281.2L635 169M337 842.2L486 954.4M337 842.2L486 730L486 954.4M635 169L784 281.2M635 169L635 393.4L784 281.2M933 169L784 281.2M933 169V393.4L784 281.2M1082 954.4L933 1066.6L1082 1178.8M1082 954.4L933 842.2M1082 954.4V1178.8M784 281.2L784 505.6M486 954.4L635 1066.6L486 1178.8M486 954.4L635 842.2M486 954.4V1178.8M635 617.8V842.2M635 617.8L784 505.6M635 617.8L784 730M635 842.2L784 954.4M784 505.6L933 617.8M933 617.8V842.2M933 617.8L784 730M933 842.2L784 954.4M784 954.4L784 730M486 1178.8L635 1291L784 1178.8L933 1291L1082 1178.8" stroke="black"/>
<path d="M1314.46 910.665C1257.11 910.665 1211.31 897.547 1177.03 871.31C1142.96 845.073 1125.19 806.458 1123.71 755.465H1220.51C1222.2 779.163 1231.51 797.042 1248.44 809.103C1265.58 820.951 1287.16 826.876 1313.19 826.876C1338.58 826.876 1358.89 821.48 1374.12 810.689C1389.57 799.898 1397.29 785.828 1397.29 768.478C1397.29 752.608 1390.31 740.442 1376.34 731.979C1362.38 723.303 1342.49 715.898 1316.68 709.762L1264.94 697.066C1225.16 687.545 1193.74 672.416 1170.68 651.681C1147.83 630.733 1136.4 602.804 1136.4 567.892C1136.4 539.327 1144.13 514.36 1159.57 492.989C1175.02 471.407 1196.18 454.692 1223.05 442.843C1250.13 430.782 1280.92 424.752 1315.41 424.752C1350.53 424.752 1381.21 430.782 1407.45 442.843C1433.69 454.903 1454.1 471.619 1468.7 492.989C1483.51 514.36 1491.13 539.01 1491.55 566.939H1395.07C1393.38 548.531 1385.55 534.143 1371.58 523.775C1357.62 513.408 1338.68 508.224 1314.77 508.224C1290.44 508.224 1271.71 513.302 1258.6 523.458C1245.48 533.403 1238.92 546.098 1238.92 561.544C1238.92 578.259 1246.22 590.955 1260.82 599.63C1275.42 608.093 1292.98 614.758 1313.5 619.625L1355.71 630.099C1383.22 636.235 1407.66 645.227 1429.03 657.076C1450.4 668.714 1467.22 683.736 1479.49 702.145C1491.77 720.341 1497.9 742.558 1497.9 768.795C1497.9 812.171 1481.72 846.66 1449.34 872.262C1416.97 897.864 1372.01 910.665 1314.46 910.665Z" fill="#8E9893"/>
</svg>
